<svg width="124" height="124" viewBox="0 0 124 124" fill="none" xmlns="http://www.w3.org/2000/svg">
<g id="acid-rain" clip-path="url(#clip0_1_84)">
<g id="Group">
<g id="Group_2">
<path id="Vector" d="M96.8091 92.2195L92.968 96.2776L90.4793 92.2658C89.9504 91.4135 88.831 91.151 87.9782 91.6799C87.1257 92.2089 86.8635 93.3285 87.3924 94.181L90.3856 99.0061L86.9783 102.606V99.157C86.9783 98.8187 86.8838 98.4869 86.7053 98.1994L81.2856 89.4635C80.7567 88.6112 79.6373 88.3487 78.7846 88.8776C77.9321 89.4065 77.6698 90.5262 78.1987 91.3787L83.3454 99.6748V111.533L79.539 108.521L80.2045 102.915C80.3227 101.919 79.6112 101.015 78.615 100.897C77.618 100.777 76.7153 101.49 76.5971 102.487L76.1951 105.874L75.8706 105.617L73.2467 100.639C72.7788 99.7516 71.6802 99.4113 70.7929 99.879C69.9053 100.347 69.5652 101.445 70.0329 102.333L72.8357 107.65C72.9537 107.874 73.1171 108.07 73.3152 108.227L83.3454 116.166V122.601C83.3454 123.605 84.1587 124.418 85.1619 124.418C86.165 124.418 86.9783 123.605 86.9783 122.601V107.891L99.4475 94.7163C100.137 93.9878 100.106 92.8381 99.3768 92.1483C98.6483 91.4596 97.4986 91.491 96.8091 92.2195Z" fill="#766D78"/>
<path id="Vector_2" d="M117.949 101.097C118.379 100.19 117.993 99.1069 117.087 98.677C116.181 98.2476 115.097 98.6334 114.667 99.5397L112.829 103.414L109.607 100.651V95.4574C109.607 94.454 108.794 93.641 107.79 93.641C106.787 93.641 105.974 94.454 105.974 95.4574V101.487C105.974 102.017 106.206 102.521 106.608 102.866L111.216 106.816L108.954 111.583C108.842 111.819 108.784 112.075 108.78 112.336L104.036 109.096C103.208 108.53 102.078 108.743 101.512 109.572C100.946 110.4 101.159 111.53 101.988 112.096L108.779 116.734V122.602C108.779 123.605 109.592 124.418 110.595 124.418C111.598 124.418 112.412 123.605 112.412 122.602V112.77L117.949 101.097Z" fill="#766D78"/>
</g>
<path id="Vector_3" d="M18.1699 121.693C17.1668 121.693 16.3535 120.88 16.3535 119.877V100.259C16.3535 99.2556 17.1668 98.4426 18.1699 98.4426C19.1731 98.4426 19.9863 99.2556 19.9863 100.259V119.877C19.9863 120.88 19.1731 121.693 18.1699 121.693Z" fill="#655E67"/>
<path id="Vector_4" d="M18.1699 77.2021L5.39256 100.431C5.18089 100.816 5.3526 101.299 5.75948 101.464L17.6189 106.274C17.9723 106.417 18.3678 106.417 18.7211 106.274L30.5805 101.464C30.9874 101.299 31.1589 100.816 30.9475 100.431L18.1699 77.2021Z" fill="#61AAB8"/>
<path id="Vector_5" d="M8.31909 95.1105L17.1585 98.6956C17.807 98.9586 18.5324 98.9586 19.181 98.6956L28.0203 95.1105L18.1696 77.2021L8.31909 95.1105Z" fill="#5595A2"/>
<path id="Vector_6" d="M30.947 100.431L18.1697 77.2021L15.8391 81.4392L27.5111 102.485C27.546 102.548 27.5683 102.613 27.5845 102.679L30.5801 101.464C30.987 101.299 31.1584 100.816 30.947 100.431Z" fill="#5595A2"/>
<path id="Vector_7" d="M17.5096 65.415L6.44602 88.3673C6.2622 88.7486 6.43851 89.206 6.83085 89.3649L17.3413 93.6279C17.8727 93.8434 18.4672 93.8434 18.9986 93.6279L29.5091 89.3649C29.9014 89.2058 30.0777 88.7486 29.8939 88.3673L18.8303 65.415C18.5639 64.8618 17.7763 64.8618 17.5096 65.415Z" fill="#6FBBC6"/>
<path id="Vector_8" d="M29.8938 88.3674L18.8302 65.4151C18.5635 64.8621 17.7759 64.8621 17.5093 65.4151L15.4827 69.6194L25.5778 90.3475C25.6732 90.5435 25.678 90.7571 25.6131 90.9452L29.5087 89.3652C29.9011 89.2061 30.0776 88.7489 29.8938 88.3674Z" fill="#61AAB8"/>
<path id="Vector_9" d="M64.0678 122.601H9.23657C13.4409 116.113 24.1311 111.501 36.6522 111.501C49.1757 111.501 59.8659 116.113 64.0678 122.601Z" fill="#D09180"/>
<path id="Vector_10" d="M36.6521 111.501C35.1516 111.501 33.6781 111.57 32.2383 111.697C42.1481 112.635 50.3231 116.89 53.7884 122.601H64.0678C59.8658 116.113 49.1757 111.501 36.6521 111.501Z" fill="#C77E67"/>
<path id="Vector_11" d="M122.183 124.418H1.81592C0.812777 124.418 -0.000488281 123.604 -0.000488281 122.601C-0.000488281 121.598 0.812777 120.785 1.81592 120.785H122.183C123.186 120.785 124 121.598 124 122.601C124 123.604 123.186 124.418 122.183 124.418Z" fill="#BE694E"/>
</g>
<path id="Vector_12" d="M84.8854 67.769C85.5381 68.5239 85.0467 69.7094 84.0513 69.7811C80.984 70.0025 77.979 71.2856 75.6326 73.6319C73.2873 75.9773 72.0025 78.9823 71.7806 82.0506C71.7087 83.0465 70.5227 83.5376 69.7676 82.884C67.4423 80.8714 64.4089 79.6551 61.091 79.6551C57.7747 79.6551 54.7411 80.8719 52.4144 82.8857C51.6595 83.5391 50.4735 83.0477 50.4015 82.052C50.1802 78.9833 48.8951 75.9775 46.5496 73.6319C44.2044 71.2868 41.1996 70.002 38.133 69.7802C37.1372 69.7082 36.646 68.5222 37.2994 67.7673C39.313 65.4416 40.5295 62.4094 40.5295 59.0907C40.5295 55.7732 39.3118 52.7401 37.2973 50.4151C36.6431 49.6602 37.1343 48.4735 38.1306 48.4015C41.1989 48.1799 44.2047 46.8963 46.5493 44.5493C48.8963 42.2047 50.1799 39.1989 50.4015 36.1306C50.4735 35.1343 51.6599 34.6431 52.4151 35.2973C54.7403 37.3118 57.7732 38.5295 61.0907 38.5295C64.4097 38.5295 67.4426 37.3125 69.7664 35.299C70.5215 34.6448 71.708 35.1357 71.7799 36.1321C72.0018 39.1999 73.2854 42.2052 75.6319 44.5493C77.9775 46.8949 80.9833 48.1799 84.052 48.4013C85.0477 48.4732 85.5391 49.6592 84.8857 50.4141C82.8719 52.7408 81.6551 55.7742 81.6551 59.0907C81.6561 62.4077 82.8736 65.4421 84.8854 67.769Z" fill="#E9A52D"/>
<path id="Vector_13" d="M61.0919 69.9111C67.0676 69.9111 71.9119 65.0668 71.9119 59.0911C71.9119 53.1154 67.0676 48.2711 61.0919 48.2711C55.1162 48.2711 50.272 53.1154 50.272 59.0911C50.272 65.0668 55.1162 69.9111 61.0919 69.9111Z" fill="#F1CD88"/>
</g>
<defs>
<clipPath id="clip0_1_84">
<rect width="124" height="124" fill="white"/>
</clipPath>
</defs>
</svg>
