<svg width="125" height="124" viewBox="0 0 125 124" fill="none" xmlns="http://www.w3.org/2000/svg">
<g id="heat-wave" clip-path="url(#clip0_1_114)">
<g id="Group">
<path id="Vector" d="M37.6715 70.6292C38.3773 70.2991 39.193 70.2991 39.8989 70.6292L65.4609 82.5846V121.95H12.1094V82.5846L37.6715 70.6292Z" fill="#5D91B9"/>
<path id="Vector_2" d="M39.8987 70.6292L65.4609 82.5846V89.1459L39.8989 77.1906C39.1932 76.8605 38.3775 76.8605 37.6715 77.1906L12.1094 89.1459V82.5846L37.6715 70.6292C38.3773 70.2991 39.193 70.2991 39.8987 70.6292Z" fill="#4980AC"/>
<path id="Vector_3" d="M46.6265 101.46V121.95H30.9436V101.46C30.9436 97.1292 34.4544 93.6185 38.7849 93.6185C43.1155 93.6185 46.6265 97.1292 46.6265 101.46Z" fill="#9EC8FC"/>
<g id="Group_2">
<path id="Vector_4" d="M82.3775 116.865C82.0232 116.865 81.6653 116.762 81.3507 116.547C80.5188 115.979 80.3051 114.844 80.8731 114.012L84.2155 109.118L80.8731 104.224C80.1618 103.182 80.1618 101.836 80.8731 100.795L84.2153 95.9014L80.8731 91.0076C80.162 89.9662 80.162 88.6206 80.8728 87.5794L84.3388 82.5046C84.9065 81.6729 86.0414 81.4591 86.8733 82.0272C87.7052 82.5952 87.9188 83.7301 87.3509 84.5617L84.1191 89.2936L87.4613 94.1875C88.1729 95.2284 88.1731 96.5745 87.4611 97.6164L84.1191 102.51L87.4615 107.403C88.1726 108.445 88.1728 109.79 87.4618 110.832L83.8852 116.07C83.5323 116.586 82.96 116.864 82.3775 116.865Z" fill="#F1CD88"/>
<path id="Vector_5" d="M94.4779 116.865C94.1235 116.865 93.7656 116.762 93.451 116.547C92.6191 115.979 92.4055 114.844 92.9734 114.013L96.3158 109.118L92.9736 104.224C92.2618 103.182 92.2621 101.836 92.9741 100.794L96.3158 95.9015L92.9736 91.0076C92.2621 89.9665 92.2621 88.6204 92.9739 87.5787L96.4393 82.5047C97.0073 81.6725 98.1419 81.4591 98.9738 82.0271C99.8057 82.595 100.019 83.7299 99.4514 84.5616L96.2199 89.2934L99.5621 94.1873C100.273 95.2285 100.273 96.5741 99.5623 97.6155L96.2199 102.509L99.5621 107.403C100.273 108.445 100.273 109.79 99.5623 110.832L95.9857 116.07C95.6324 116.586 95.0601 116.865 94.4779 116.865Z" fill="#F1CD88"/>
<path id="Vector_6" d="M106.578 116.865C106.224 116.865 105.866 116.762 105.551 116.547C104.719 115.979 104.506 114.844 105.074 114.013L108.416 109.118L105.074 104.224C104.363 103.182 104.363 101.836 105.074 100.795L108.416 95.9015L105.074 91.0076C104.363 89.9662 104.363 88.6206 105.074 87.5795L108.539 82.5047C109.107 81.6725 110.242 81.4591 111.074 82.0271C111.906 82.595 112.119 83.7299 111.552 84.5616L108.32 89.2934L111.662 94.1873C112.374 95.2285 112.374 96.5741 111.662 97.6155L108.32 102.509L111.662 107.403C112.373 108.445 112.374 109.79 111.662 110.832L108.086 116.07C107.733 116.586 107.16 116.865 106.578 116.865Z" fill="#F1CD88"/>
</g>
<path id="Vector_7" d="M122.843 123.774H2.48993C1.48267 123.774 0.66626 122.958 0.66626 121.95C0.66626 120.943 1.48267 120.127 2.48993 120.127H122.843C123.85 120.127 124.666 120.943 124.666 121.95C124.666 122.958 123.85 123.774 122.843 123.774Z" fill="#766D78"/>
<path id="Vector_8" d="M51.7812 57.3616V72.0723L62.1958 76.8175V61.923C62.1958 61.6314 62.027 61.366 61.7628 61.2424L52.4942 56.908C52.1622 56.7528 51.7812 56.9952 51.7812 57.3616Z" fill="#5D91B9"/>
<path id="Vector_9" d="M6.64679 85.1394L37.6717 70.6292C38.3775 70.2991 39.1932 70.2991 39.8991 70.6292L70.9241 85.1394C71.6022 85.4564 72.4089 85.1639 72.7262 84.4858L75.4537 78.6539C75.7707 77.9758 75.4782 77.169 74.8001 76.8518L40.7235 60.9144C39.4954 60.3399 38.0755 60.3399 36.8476 60.9144L2.77058 76.852C2.09246 77.169 1.7999 77.976 2.11692 78.6541L4.84444 84.486C5.1617 85.1641 5.96867 85.4567 6.64679 85.1394Z" fill="#D97B7B"/>
<path id="Vector_10" d="M27.4595 58.3959C27.1289 57.7807 26.2476 57.7807 25.917 58.3959C24.1319 61.7175 19.8674 69.9642 19.8674 72.9429C19.8674 76.7099 22.9212 79.7636 26.6884 79.7636C30.4556 79.7636 33.5094 76.7099 33.5094 72.9429C33.5091 69.9642 29.2444 61.7175 27.4595 58.3959Z" fill="#BED9FD"/>
<path id="Vector_11" d="M12.0064 42.2147C11.6758 41.5995 10.7945 41.5995 10.4639 42.2147C8.67874 45.5363 4.41431 53.783 4.41431 56.7617C4.41431 60.5286 7.46805 63.5826 11.2353 63.5826C15.0025 63.5826 18.0562 60.5289 18.0562 56.7617C18.056 53.783 13.7916 45.536 12.0064 42.2147Z" fill="#BED9FD"/>
<g id="Group_3">
<path id="Vector_12" d="M116.63 59.769C117.283 60.5239 116.791 61.7094 115.796 61.7811C112.729 62.0025 109.724 63.2856 107.377 65.6319C105.032 67.9773 103.747 70.9823 103.525 74.0506C103.453 75.0465 102.267 75.5376 101.512 74.884C99.187 72.8714 96.1536 71.6551 92.8356 71.6551C89.5193 71.6551 86.4857 72.8719 84.159 74.8857C83.4041 75.5391 82.2181 75.0477 82.1462 74.052C81.9248 70.9833 80.6398 67.9775 78.2942 65.6319C75.9491 63.2868 72.9443 62.002 69.8777 61.7802C68.8818 61.7082 68.3906 60.5222 69.0441 59.7673C71.0576 57.4416 72.2741 54.4094 72.2741 51.0907C72.2741 47.7732 71.0564 44.7401 69.0419 42.4151C68.3877 41.6602 68.8789 40.4735 69.8753 40.4015C72.9435 40.1799 75.9493 38.8963 78.2939 36.5493C80.641 34.2047 81.9246 31.1989 82.1462 28.1306C82.2181 27.1343 83.4046 26.6431 84.1597 27.2973C86.485 29.3118 89.5179 30.5295 92.8354 30.5295C96.1543 30.5295 99.1872 29.3125 101.511 27.299C102.266 26.6448 103.453 27.1357 103.525 28.1321C103.746 31.1999 105.03 34.2052 107.377 36.5493C109.722 38.8949 112.728 40.1799 115.797 40.4013C116.792 40.4732 117.284 41.6592 116.63 42.4141C114.616 44.7408 113.4 47.7742 113.4 51.0907C113.401 54.4077 114.618 57.4421 116.63 59.769Z" fill="#E9A52D"/>
<path id="Vector_13" d="M92.8363 61.9109C98.812 61.9109 103.656 57.0667 103.656 51.091C103.656 45.1153 98.812 40.271 92.8363 40.271C86.8606 40.271 82.0164 45.1153 82.0164 51.091C82.0164 57.0667 86.8606 61.9109 92.8363 61.9109Z" fill="#F1CD88"/>
</g>
</g>
</g>
<defs>
<clipPath id="clip0_1_114">
<rect width="124" height="124" fill="white" transform="translate(0.666748)"/>
</clipPath>
</defs>
</svg>
