<svg width="125" height="124" viewBox="0 0 125 124" fill="none" xmlns="http://www.w3.org/2000/svg">
<g id="wildfire" clip-path="url(#clip0_1_146)">
<g id="Group">
<path id="Vector" d="M122.541 89.8715C121.661 89.3896 120.557 89.7112 120.075 90.5911L115.904 98.197L112.699 96.5995L114.001 94.6763C114.532 93.8918 114.813 92.9761 114.813 92.0284V73.93C114.813 72.9269 114 72.1136 112.996 72.1136C111.993 72.1136 111.18 72.9269 111.18 73.93V83.007L107.268 81.1196L103.875 73.2136C103.479 72.2921 102.413 71.8646 101.49 72.2609C100.568 72.6566 100.141 73.7246 100.537 74.6464L103.984 82.6778C104.295 83.4025 104.857 83.99 105.567 84.3325L111.18 87.0408V92.0284C111.18 92.2471 111.115 92.4583 110.992 92.6395L104.863 101.693C104.331 102.478 104.05 103.393 104.05 104.341V117.266C104.05 118.269 104.863 119.083 105.867 119.083C106.87 119.083 107.683 118.269 107.683 117.266V104.341C107.683 104.122 107.748 103.911 107.871 103.73L110.643 99.6343L115.221 101.916C115.588 102.098 115.976 102.185 116.359 102.185C117.258 102.185 118.123 101.706 118.585 100.862L123.259 92.3372C123.742 91.4579 123.42 90.354 122.541 89.8715Z" fill="#766D78"/>
<path id="Vector_2" d="M117.82 122.628H6.84473C22.1071 111.072 41.3811 104.176 62.3325 104.176C83.2839 104.176 102.558 111.072 117.82 122.628Z" fill="#D9A797"/>
<path id="Vector_3" d="M56.0654 122.628H88.7752C91.6863 119.482 94.5684 115.34 96.719 110.732C101.659 100.141 102.732 87.0783 91.3943 77.9193C91.0528 77.6434 90.5519 77.9197 90.6069 78.3552C90.9569 81.12 90.0506 83.4789 88.5403 84.5705C85.7406 86.5951 82.0303 85.188 80.0734 82.5627C76.5569 77.8449 78.5816 71.72 78.8988 66.4185C79.3348 59.102 76.7434 51.6499 71.8609 46.1837C67.2431 41.0138 60.6321 37.6788 53.7368 37.0027C53.3108 36.961 53.0441 37.4594 53.3158 37.7902C56.2797 41.3945 57.9232 46.0314 58.3056 50.6933C58.5648 53.8635 57.9375 57.4673 55.3509 59.3176C53.2681 60.8046 50.1802 60.6787 48.2282 59.0269C46.6094 57.6569 45.8962 55.3481 46.336 53.2883C46.429 52.8529 45.9495 52.5303 45.5838 52.7848C36.0542 59.4169 27.9092 81.6158 34.547 100.48C35.3874 102.866 36.4627 105.195 37.802 107.436C42.9219 106.041 48.2258 105.072 53.675 104.571L56.0654 122.628Z" fill="#D97B7B"/>
<path id="Vector_4" d="M54.827 39.8934C57.8573 41.4594 60.6088 43.5904 62.8703 46.1835C67.6378 51.6496 70.1679 59.1018 69.7424 66.4182C69.4326 71.7197 67.4556 77.8446 70.8894 82.5625C72.8002 85.1878 76.4229 86.5949 79.1567 84.5702C79.6655 84.1936 80.1017 83.6632 80.4439 83.0204C80.3146 82.8725 80.1908 82.7199 80.0736 82.5625C76.557 77.8446 78.5817 71.7197 78.899 66.4182C79.3349 59.1018 76.7435 51.6496 71.861 46.1835C67.2432 41.0135 60.6322 37.6786 53.7369 37.0024C53.3109 36.9607 53.0443 37.4592 53.316 37.79C53.8648 38.4577 54.3681 39.1612 54.827 39.8934Z" fill="#D16161"/>
<path id="Vector_5" d="M91.3944 77.9191C91.0529 77.6432 90.552 77.9196 90.607 78.355C90.957 81.1198 90.0507 83.4787 88.5404 84.5703C88.322 84.7282 88.0975 84.8628 87.8693 84.9801C92.3069 93.1122 90.8264 102.643 87.1425 110.731C85.0425 115.34 82.2285 119.482 79.386 122.628H88.7753C91.6864 119.482 94.5685 115.34 96.7191 110.731C101.659 100.141 102.732 87.0781 91.3944 77.9191Z" fill="#D16161"/>
<path id="Vector_6" d="M67.1102 98.6759C66.1473 101.241 64.7925 104.022 63.0316 106.242C62.7928 106.543 62.3147 106.45 62.1962 106.085C60.6562 101.327 57.6935 97.4035 53.9222 95.0446C53.5342 94.8019 53.0408 94.8012 52.6529 95.0439C47.0348 98.557 43.21 105.541 43.21 113.583C43.21 116.823 43.83 119.891 44.945 122.628H66.8756C74.0695 115.008 75.3875 107.004 68.822 98.4105C68.3497 97.7922 67.3834 97.9479 67.1102 98.6759Z" fill="#EEC06B"/>
<path id="Vector_7" d="M61.2716 107.463C61.3876 107.829 61.8402 107.908 62.0914 107.621C62.4992 107.155 62.7935 106.706 62.9989 106.273C62.7521 106.531 62.3098 106.435 62.1962 106.084C60.6562 101.327 57.6935 97.4032 53.9222 95.0443C53.5342 94.8016 53.0408 94.8009 52.6529 95.0436C52.3763 95.2165 52.1055 95.4003 51.8379 95.5897C55.429 98.1525 59.8669 103.043 61.2716 107.463Z" fill="#E9A52D"/>
<path id="Vector_8" d="M68.8219 98.4102C68.3498 97.7924 67.3835 97.9481 67.1101 98.6761C66.7684 99.5865 66.3748 100.524 65.9335 101.454C70.012 108.903 68.2711 115.914 62.051 122.628H66.8752C74.0693 115.007 75.3873 107.004 68.8219 98.4102Z" fill="#E9A52D"/>
<path id="Vector_9" d="M26.3672 117.489C25.364 117.489 24.5508 116.676 24.5508 115.673V99.2745C24.5508 98.2714 25.364 97.4581 26.3672 97.4581C27.3703 97.4581 28.1836 98.2714 28.1836 99.2745V115.673C28.1836 116.676 27.3703 117.489 26.3672 117.489Z" fill="#BE694E"/>
<path id="Vector_10" d="M23.9771 66.4698L14.0091 98.968C13.5698 100.4 14.641 101.849 16.1389 101.849H36.5953C38.0932 101.849 39.1642 100.4 38.7251 98.968L28.7571 66.4698C28.0342 64.114 24.6995 64.114 23.9771 66.4698Z" fill="#6FBBC6"/>
<path id="Vector_11" d="M38.7254 98.968L28.7574 66.4698C28.035 64.114 24.7001 64.114 23.9776 66.4698L23.7141 67.3291L33.4186 98.968C33.8579 100.4 32.7867 101.849 31.2888 101.849H36.5958C38.0935 101.849 39.1645 100.4 38.7254 98.968Z" fill="#61AAB8"/>
<path id="Vector_12" d="M122.517 124.444H2.14966C1.14652 124.444 0.333252 123.631 0.333252 122.627C0.333252 121.624 1.14652 120.811 2.14966 120.811H122.517C123.52 120.811 124.333 121.624 124.333 122.627C124.333 123.631 123.52 124.444 122.517 124.444Z" fill="#766D78"/>
</g>
</g>
<defs>
<clipPath id="clip0_1_146">
<rect width="124" height="124" fill="white" transform="translate(0.333252)"/>
</clipPath>
</defs>
</svg>
