<svg width="332" height="330" xmlns="http://www.w3.org/2000/svg" xmlns:xlink="http://www.w3.org/1999/xlink" xml:space="preserve" overflow="hidden"><g><g><path d="M118.333 252.778 176.389 225.556 234.444 252.778 176.389 280Z" fill="#C2F1C8" fill-rule="evenodd" fill-opacity="0.819608" transform="matrix(1.001 0 0 1 -78.4121 -21.1111)"/><path d="M191.111 216.389 249.167 188.889 307.222 216.389 249.167 243.889Z" fill="#F2CFEE" fill-rule="evenodd" fill-opacity="0.819608" transform="matrix(1.001 0 0 1 -78.4121 -21.1111)"/><path d="M268.889 253.056 326.944 225.556 385 253.056 326.944 280.556Z" fill="#C2F1C8" fill-rule="evenodd" fill-opacity="0.819608" transform="matrix(1.001 0 0 1 -78.4121 -21.1111)"/><path d="M191.111 286.667 249.167 259.444 307.222 286.667 249.167 313.889Z" fill="#96DCF8" fill-rule="evenodd" fill-opacity="0.819608" transform="matrix(1.001 0 0 1 -78.4121 -21.1111)"/><path d="M116.111 121.111 174.167 93.8889 232.222 121.111 174.167 148.333Z" fill="#F2CFEE" fill-rule="evenodd" fill-opacity="0.819608" transform="matrix(1.001 0 0 1 -78.4121 -21.1111)"/><path d="M190 84.4445 248.056 57.2222 306.111 84.4445 248.056 111.667Z" fill="#F2AA84" fill-rule="evenodd" fill-opacity="0.819608" transform="matrix(1.001 0 0 1 -78.4121 -21.1111)"/><path d="M267.222 121.389 325 93.8889 382.778 121.389 325 148.889Z" fill="#FBE3D6" fill-rule="evenodd" fill-opacity="0.819608" transform="matrix(1.001 0 0 1 -78.4121 -21.1111)"/><path d="M190.556 155 248.611 127.778 306.667 155 248.611 182.222Z" fill="#C2F1C8" fill-rule="evenodd" fill-opacity="0.819608" transform="matrix(1.001 0 0 1 -78.4121 -21.1111)"/><path d="M248.889 42.7679 248.889 328.284 247.778 328.284 247.778 42.7679ZM245.261 46.9312 248.333 41.6641 251.406 46.9312C251.561 47.1962 251.471 47.5364 251.206 47.691 250.941 47.8456 250.601 47.7561 250.446 47.4911L247.853 43.0466 248.813 43.0466 246.221 47.4911C246.066 47.7561 245.726 47.8456 245.461 47.691 245.196 47.5364 245.106 47.1962 245.261 46.9312ZM251.406 324.122 248.333 329.388 245.261 324.122C245.106 323.857 245.196 323.516 245.461 323.362 245.726 323.207 246.066 323.297 246.221 323.562L248.813 328.006 247.853 328.006 250.446 323.562C250.601 323.297 250.941 323.207 251.206 323.362 251.471 323.516 251.561 323.857 251.406 324.122Z" fill="#156082" fill-rule="nonzero" fill-opacity="1" transform="matrix(1.001 0 0 1 -78.4121 -21.1111)"/><path d="M1.22894-0.0226766 174.798 83.9356 174.314 84.9356 0.745106 0.977561ZM3.40127 5.05831-0.00231778-0.00112124 6.07711-0.473438C6.383-0.497204 6.65022-0.268487 6.674 0.0374159 6.69778 0.343319 6.46906 0.610567 6.16317 0.634333L1.03327 1.03288 1.45119 0.168899 4.32319 4.43812C4.49445 4.6927 4.42691 5.03791 4.17233 5.20917 3.91775 5.38043 3.57253 5.31289 3.40127 5.05831ZM172.141 79.8539 175.544 84.9133 169.464 85.3856C169.159 85.4094 168.892 85.1806 168.868 84.875 168.844 84.5689 169.073 84.3017 169.379 84.2778L174.508 83.8794 174.091 84.7433 171.218 80.4744C171.047 80.2195 171.115 79.8745 171.369 79.7033 171.624 79.5317 171.969 79.5994 172.141 79.8539Z" fill="#156082" fill-rule="nonzero" fill-opacity="1" transform="matrix(-1.001 0 0 1 252.462 59.4444)"/><path d="M167.896 80.5328 341.465 164.491 340.981 165.491 167.412 81.5333ZM170.068 85.6139 166.664 80.5545 172.744 80.0822C173.049 80.0583 173.317 80.2872 173.341 80.5928 173.364 80.8989 173.136 81.1661 172.83 81.19L167.7 81.5883 168.118 80.7244 170.99 84.9939C171.161 85.2483 171.093 85.5933 170.839 85.765 170.584 85.9361 170.239 85.8683 170.068 85.6139ZM338.807 160.409 342.211 165.469 336.131 165.941C335.826 165.965 335.558 165.736 335.534 165.431 335.511 165.124 335.739 164.857 336.046 164.833L341.175 164.435 340.757 165.299 337.885 161.03C337.714 160.775 337.782 160.43 338.036 160.259 338.291 160.087 338.636 160.155 338.807 160.409Z" fill="#156082" fill-rule="nonzero" fill-opacity="1" transform="matrix(1.001 0 0 1 -78.4121 -21.1111)"/><path d="M1.22894-0.0226766 174.798 83.9356 174.314 84.9356 0.745106 0.977561ZM3.40127 5.05831-0.00231778-0.00112124 6.07711-0.473438C6.383-0.497204 6.65022-0.268487 6.674 0.0374159 6.69778 0.343319 6.46906 0.610567 6.16317 0.634333L1.03327 1.03288 1.45119 0.168899 4.32319 4.43812C4.49445 4.6927 4.42691 5.03791 4.17233 5.20917 3.91775 5.38043 3.57253 5.31289 3.40127 5.05831ZM172.141 79.8539 175.544 84.9133 169.464 85.3856C169.159 85.4094 168.892 85.1806 168.868 84.875 168.844 84.5689 169.073 84.3017 169.379 84.2778L174.508 83.8794 174.091 84.7433 171.218 80.4744C171.047 80.2195 171.115 79.8745 171.369 79.7033 171.624 79.5317 171.969 79.5994 172.141 79.8539Z" fill="#156082" fill-rule="nonzero" fill-opacity="1" transform="matrix(-1.001 0 0 1 252.462 192.222)"/><path d="M167.896 213.311 341.465 297.269 340.981 298.269 167.412 214.311ZM170.068 218.392 166.664 213.332 172.744 212.86C173.049 212.836 173.317 213.065 173.341 213.371 173.364 213.677 173.136 213.944 172.83 213.968L167.7 214.366 168.118 213.502 170.99 217.772C171.161 218.026 171.093 218.371 170.839 218.543 170.584 218.714 170.239 218.646 170.068 218.392ZM338.807 293.187 342.211 298.247 336.131 298.719C335.826 298.743 335.558 298.514 335.534 298.208 335.511 297.902 335.739 297.635 336.046 297.611L341.175 297.213 340.757 298.077 337.885 293.808C337.714 293.553 337.782 293.208 338.036 293.037 338.291 292.865 338.636 292.933 338.807 293.187Z" fill="#156082" fill-rule="nonzero" fill-opacity="1" transform="matrix(1.001 0 0 1 -78.4121 -21.1111)"/><text fill="#000000" fill-opacity="1" font-family="Aptos,Aptos_MSFontService,sans-serif" font-style="normal" font-variant="normal" font-weight="400" font-stretch="normal" font-size="19" text-anchor="start" direction="ltr" writing-mode="lr-tb" unicode-bidi="normal" text-decoration="none" transform="matrix(0.479657 -0.281129 0.281411 0.479175 258.609 60)">Water </text><text fill="#000000" fill-opacity="1" font-family="Aptos,Aptos_MSFontService,sans-serif" font-style="normal" font-variant="normal" font-weight="400" font-stretch="normal" font-size="19" text-anchor="start" direction="ltr" writing-mode="lr-tb" unicode-bidi="normal" text-decoration="none" transform="matrix(0.479657 -0.281129 0.281411 0.479175 283.295 45)">us</text><text fill="#000000" fill-opacity="1" font-family="Aptos,Aptos_MSFontService,sans-serif" font-style="normal" font-variant="normal" font-weight="400" font-stretch="normal" font-size="19" text-anchor="start" direction="ltr" writing-mode="lr-tb" unicode-bidi="normal" text-decoration="none" transform="matrix(0.479657 -0.281129 0.281411 0.479175 292.648 40)">e</text><text fill="#000000" fill-opacity="1" font-family="Aptos,Aptos_MSFontService,sans-serif" font-style="normal" font-variant="normal" font-weight="400" font-stretch="normal" font-size="19" text-anchor="start" direction="ltr" writing-mode="lr-tb" unicode-bidi="normal" text-decoration="none" transform="matrix(0.48408 -0.273457 0.273732 0.483594 257.417 192)">Water </text><text fill="#000000" fill-opacity="1" font-family="Aptos,Aptos_MSFontService,sans-serif" font-style="normal" font-variant="normal" font-weight="400" font-stretch="normal" font-size="19" text-anchor="start" direction="ltr" writing-mode="lr-tb" unicode-bidi="normal" text-decoration="none" transform="matrix(0.48408 -0.273457 0.273732 0.483594 282.331 178)">use</text><text fill="#000000" fill-opacity="1" font-family="Aptos,Aptos_MSFontService,sans-serif" font-style="normal" font-variant="normal" font-weight="400" font-stretch="normal" font-size="19" text-anchor="start" direction="ltr" writing-mode="lr-tb" unicode-bidi="normal" text-decoration="none" transform="matrix(0.556114 0 0 0.555556 148.243 321)">Dry Spells</text><text fill="#000000" fill-opacity="1" font-family="Aptos,Aptos_MSFontService,sans-serif" font-style="normal" font-variant="normal" font-weight="400" font-stretch="normal" font-size="19" text-anchor="start" direction="ltr" writing-mode="lr-tb" unicode-bidi="normal" text-decoration="none" transform="matrix(0.556114 0 0 0.555556 146.488 13)">Dry Spells</text><text fill="#000000" fill-opacity="1" font-family="Aptos,Aptos_MSFontService,sans-serif" font-style="normal" font-variant="normal" font-weight="400" font-stretch="normal" font-size="19" text-anchor="start" direction="ltr" writing-mode="lr-tb" unicode-bidi="normal" text-decoration="none" transform="matrix(0.50322 0.236473 -0.23671 0.502715 36.936 168)">Population</text><text fill="#000000" fill-opacity="1" font-family="Aptos,Aptos_MSFontService,sans-serif" font-style="normal" font-variant="normal" font-weight="400" font-stretch="normal" font-size="19" text-anchor="start" direction="ltr" writing-mode="lr-tb" unicode-bidi="normal" text-decoration="none" transform="matrix(0.50322 0.236473 -0.23671 0.502715 36.2069 35)">Population</text></g></g></svg>