<svg width="124" height="124" viewBox="0 0 124 124" fill="none" xmlns="http://www.w3.org/2000/svg">
<g id="blizzard" clip-path="url(#clip0_1_174)">
<g id="Group">
<path id="Vector" d="M40.9901 72.9386C40.2403 72.5879 39.3733 72.5879 38.6235 72.9386L11.4612 85.6423V115.557H68.1527V85.6423L40.9901 72.9386Z" fill="#D97B7B"/>
<path id="Vector_2" d="M38.6235 72.9386L11.4612 85.6423V91.7823L38.6235 79.0786C39.3733 78.7279 40.2403 78.7279 40.9901 79.0786L68.1524 91.7823V85.6423L40.9901 72.9386C40.2403 72.5879 39.3733 72.5879 38.6235 72.9386Z" fill="#D16161"/>
<path id="Vector_3" d="M108.393 88.3351L111.568 87.0268C112.351 86.704 112.684 85.7752 112.284 85.0285L111.167 82.9421L101.123 69.0332C100.539 67.9432 98.9766 67.9432 98.3926 69.0332L88.5136 82.6352L87.2317 85.0288C86.8318 85.7754 87.1646 86.7045 87.9478 87.0271L91.1224 88.3354C91.6293 88.5441 91.8337 89.1535 91.5557 89.6257L82.8086 104.483L99.7578 109.974L116.707 104.483L107.96 89.6257C107.682 89.1532 107.887 88.5441 108.393 88.3351Z" fill="#6FBBC6"/>
<path id="Vector_4" d="M107.961 89.6256C107.683 89.1534 107.887 88.5443 108.394 88.3353L111.569 87.027C112.352 86.7041 112.685 85.7753 112.285 85.0287L111.05 82.723L102.946 79.8088L105.056 85.0287C105.357 85.7753 105.106 86.7044 104.515 87.027L102.119 88.3353C101.737 88.544 101.582 89.1534 101.792 89.6256L108.394 104.483L97.3894 109.206L99.7582 109.974L116.707 104.483L107.961 89.6256Z" fill="#61AAB8"/>
<path id="Vector_5" d="M111.207 83.0174L100.572 79.2252C99.7932 78.9475 98.9213 79.2555 98.5016 79.968C96.2025 83.8719 91.7359 83.8469 88.499 82.6667L98.3929 64.1893C98.9773 63.0999 100.539 63.0999 101.124 64.1893L111.207 83.0174Z" fill="#DDEBFD"/>
<path id="Vector_6" d="M98.393 64.1896L97.3894 66.0636L103.07 80.1158L111.207 83.0175L101.124 64.1896C100.905 63.7808 100.548 63.5255 100.157 63.4233C99.5056 63.253 98.7583 63.5088 98.393 64.1896Z" fill="#BED9FD"/>
<path id="Vector_7" d="M25.9972 57.2326V73.765L14.9316 79.7792V62.4086L25.9972 57.2326Z" fill="#6FBBC6"/>
<path id="Vector_8" d="M73.9575 88.3572L40.9902 72.9385C40.2404 72.5879 39.3733 72.5879 38.6235 72.9385L5.65622 88.3572C4.93571 88.694 4.07837 88.3833 3.74148 87.6628L0.843226 81.4657C0.506343 80.7452 0.817069 79.8879 1.53758 79.551L37.7475 62.6158C39.0524 62.0055 40.5613 62.0055 41.8662 62.6158L78.0761 79.551C78.7966 79.8879 79.1076 80.7452 78.7704 81.4657L75.8722 87.6628C75.5353 88.3833 74.678 88.6943 73.9575 88.3572Z" fill="#5D91B9"/>
<path id="Vector_9" d="M31.4749 98.7579V115.557H48.1395V98.7579C48.1395 94.1561 44.4091 90.4257 39.8073 90.4257C35.2055 90.4257 31.4749 94.1561 31.4749 98.7579Z" fill="#81A9C8"/>
<path id="Vector_10" d="M48.1391 117.428H31.4744C30.441 117.428 29.6033 116.59 29.6033 115.557V98.758C29.6033 93.1317 34.1806 88.5544 39.8069 88.5544C45.4331 88.5544 50.0105 93.1317 50.0105 98.758V115.557C50.0102 116.59 49.1725 117.428 48.1391 117.428ZM33.3456 113.685H46.2677V98.758C46.2677 95.1954 43.3692 92.2969 39.8066 92.2969C36.2441 92.2969 33.3456 95.1954 33.3456 98.758V113.685Z" fill="#766D78"/>
<path id="Vector_11" d="M10.7343 66.2443C10.0303 66.2443 9.35602 65.8452 9.03803 65.1653C8.60015 64.2293 9.00412 63.1155 9.94017 62.6776L28.3384 54.0727C29.2745 53.6346 30.3885 54.0388 30.8262 54.9748C31.2641 55.9109 30.8601 57.0247 29.924 57.4626L11.5258 66.0675C11.2695 66.1874 10.9997 66.2443 10.7343 66.2443Z" fill="#5D91B9"/>
<path id="Vector_12" d="M19.8468 37.7965L18.7822 37.3226L19.562 36.4565C20.2535 35.6885 20.1915 34.5054 19.4235 33.8138C18.6555 33.1223 17.4724 33.1846 16.7807 33.9523L16.0009 34.8184L15.4182 33.8089C14.9016 32.9138 13.7568 32.6074 12.8622 33.124C11.967 33.6406 11.6604 34.7852 12.1772 35.6801L12.7599 36.6895L11.6197 36.9319C10.6088 37.1467 9.96365 38.1404 10.1785 39.1513C10.3654 40.031 11.1421 40.6338 12.007 40.6338C12.1358 40.6338 12.2669 40.6204 12.3979 40.5923L13.5379 40.3499L13.416 41.509C13.308 42.5369 14.0537 43.4577 15.0813 43.5657C15.1479 43.5727 15.2138 43.5761 15.2792 43.5761C16.2247 43.5761 17.0367 42.8616 17.138 41.9004L17.2598 40.7413L18.3247 41.2155C18.572 41.3257 18.8304 41.3778 19.0847 41.3778C19.8013 41.3778 20.485 40.9639 20.7952 40.2671C21.2154 39.323 20.7909 38.217 19.8468 37.7965Z" fill="#BED9FD"/>
<path id="Vector_13" d="M76.5754 47.1131L75.4352 46.8707L76.0179 45.8612C76.5347 44.9661 76.2281 43.8218 75.333 43.3052C74.4378 42.7881 73.2933 43.0952 72.7769 43.9901L72.1942 44.9995L71.4144 44.1335C70.7229 43.3655 69.5398 43.3032 68.7718 43.9949C68.0039 44.6866 67.9419 45.8697 68.6333 46.6377L69.4132 47.5037L68.3483 47.9779C67.4042 48.3984 66.9797 49.5044 67.4001 50.4485C67.7103 51.1453 68.394 51.5592 69.1107 51.5592C69.365 51.5592 69.6234 51.5071 69.8707 51.3969L70.9353 50.9229L71.0571 52.082C71.1584 53.0433 71.9702 53.7577 72.9159 53.7577C72.9813 53.7577 73.0474 53.7544 73.1138 53.7473C74.1414 53.6393 74.8871 52.7185 74.7791 51.6907L74.6573 50.5316L75.7972 50.774C75.9285 50.8018 76.0593 50.8154 76.1881 50.8154C77.0527 50.8154 77.8297 50.2126 78.0166 49.333C78.2315 48.3216 77.5863 47.3279 76.5754 47.1131Z" fill="#DDEBFD"/>
<path id="Vector_14" d="M44.5859 27.0423C44.2667 26.0595 43.2107 25.5211 42.2279 25.8411L41.1194 26.2012V25.0355C41.1194 24.0021 40.2817 23.1644 39.2483 23.1644C38.2149 23.1644 37.3772 24.0021 37.3772 25.0355V26.2012L36.2689 25.8411C35.2859 25.5214 34.2304 26.0598 33.911 27.0423C33.5915 28.0251 34.1294 29.081 35.1122 29.4002L36.2207 29.7604L35.5356 30.7035C34.9282 31.5395 35.1137 32.7097 35.9497 33.3171C36.2818 33.5584 36.6666 33.6746 37.048 33.6746C37.6266 33.6746 38.1972 33.407 38.5636 32.903L39.2486 31.9602L39.9335 32.903C40.2996 33.407 40.8702 33.6746 41.4491 33.6746C41.8303 33.6746 42.2151 33.5584 42.5474 33.3171C43.3834 32.7095 43.5689 31.5395 42.9615 30.7035L42.2764 29.7604L43.3851 29.4002C44.3674 29.081 44.9053 28.0253 44.5859 27.0423Z" fill="#DDEBFD"/>
<path id="Vector_15" d="M72.9074 34.2117C72.4286 34.2117 71.9495 34.0289 71.5843 33.6637C70.8534 32.933 70.8534 31.7482 71.5843 31.0173L73.5925 29.0091C74.3232 28.2784 75.508 28.2784 76.2389 29.0091C76.9699 29.7397 76.9699 30.9245 76.2389 31.6555L74.2307 33.6637C73.865 34.0289 73.3862 34.2117 72.9074 34.2117Z" fill="#BED9FD"/>
<path id="Vector_16" d="M82.6987 24.4204C82.2198 24.4204 81.7408 24.2376 81.3756 23.8724C80.6447 23.1417 80.6447 21.9569 81.3756 21.226L95.0536 7.54795C95.7843 6.81727 96.9691 6.81727 97.7 7.54795C98.4309 8.27863 98.4309 9.46341 97.7 10.1943L84.022 23.8724C83.6565 24.2376 83.1775 24.4204 82.6987 24.4204Z" fill="#DDEBFD"/>
<path id="Vector_17" d="M89.5182 51.7116C89.0394 51.7116 88.5604 51.5287 88.1952 51.1635C87.4642 50.4328 87.4642 49.248 88.1952 48.5171L92.1634 44.5489C92.8941 43.8182 94.0789 43.8182 94.8098 44.5489C95.5407 45.2795 95.5407 46.4643 94.8098 47.1952L90.8415 51.1635C90.4761 51.5287 89.9973 51.7116 89.5182 51.7116Z" fill="#BED9FD"/>
<g id="Group_2">
<path id="Vector_18" d="M101.262 39.9679C100.783 39.9679 100.304 39.785 99.9391 39.4198C99.2081 38.6891 99.2081 37.5043 99.9391 36.7734L118.972 17.7401C119.703 17.0095 120.888 17.0095 121.619 17.7401C122.35 18.4708 122.35 19.6556 121.619 20.3865L102.585 39.4198C102.22 39.7853 101.741 39.9679 101.262 39.9679Z" fill="#DDEBFD"/>
<path id="Vector_19" d="M113.185 62.8324C112.706 62.8324 112.227 62.6496 111.862 62.2844C111.131 61.5537 111.131 60.3689 111.862 59.638L116.241 55.2585C116.972 54.5278 118.157 54.5278 118.888 55.2585C119.618 55.9892 119.618 57.174 118.888 57.9049L114.508 62.2844C114.143 62.6496 113.664 62.8324 113.185 62.8324Z" fill="#DDEBFD"/>
<path id="Vector_20" d="M59.6694 25.9948C59.1906 25.9948 58.7115 25.8122 58.3463 25.4467C57.6154 24.716 57.6154 23.5312 58.3463 22.8003L65.1733 15.9735C65.9042 15.2426 67.089 15.2426 67.8197 15.9735C68.5506 16.7042 68.5506 17.889 67.8197 18.6199L60.9927 25.4467C60.6272 25.8119 60.1482 25.9948 59.6694 25.9948Z" fill="#DDEBFD"/>
<path id="Vector_21" d="M71.9445 13.7192C71.4657 13.7192 70.9867 13.5363 70.6212 13.1711C69.8905 12.4402 69.8905 11.2557 70.6215 10.5247L72.1439 9.00259C72.8748 8.27215 74.0593 8.27191 74.7902 9.00283C75.5209 9.73375 75.5209 10.9183 74.79 11.6492L73.2676 13.1714C72.9024 13.5366 72.4233 13.7192 71.9445 13.7192Z" fill="#DDEBFD"/>
<path id="Vector_22" d="M47.5467 46.8437C47.0657 46.8437 46.5848 46.6594 46.219 46.291C45.4908 45.5577 45.4949 44.3729 46.2282 43.6446L50.2582 39.6422C50.9914 38.914 52.1761 38.9179 52.9046 39.6512C53.6329 40.3845 53.6288 41.5693 52.8954 42.2976L48.8654 46.3C48.5005 46.6625 48.0236 46.8437 47.5467 46.8437Z" fill="#DDEBFD"/>
</g>
<path id="Vector_23" d="M45.3256 18.6474C44.8468 18.6474 44.3678 18.4645 44.0025 18.0993C43.2716 17.3686 43.2716 16.1839 44.0025 15.4529L46.5382 12.9172C47.2689 12.1865 48.4537 12.1865 49.1846 12.9172C49.9155 13.6479 49.9155 14.8327 49.1846 15.5636L46.6489 18.0993C46.2835 18.4645 45.8047 18.6474 45.3256 18.6474Z" fill="#BED9FD"/>
<path id="Vector_24" d="M0.597715 101.534C8.66062 97.9478 18.5424 98.7778 25.8981 103.651C26.2655 103.894 26.7443 103.859 27.085 103.58C31.8956 99.6335 48.4024 97.3714 59.6898 109.541C60.1051 109.988 60.8225 109.971 61.1993 109.491C69.6919 98.6642 88.5704 99.577 97.7178 104.52C98.1002 104.727 98.5701 104.66 98.881 104.356C106.283 97.1263 119.406 98.4332 123.72 102.928C123.899 103.114 123.999 103.362 123.999 103.621V122.729C123.999 123.416 123.442 123.973 122.756 123.973H1.24314C0.556301 123.973 -0.000488281 123.416 -0.000488281 122.729V102.447C-0.000488281 102.051 0.235645 101.695 0.597715 101.534Z" fill="#DDEBFD"/>
<path id="Vector_25" d="M123.721 102.928C119.407 98.4338 106.283 97.1269 98.8813 104.357C98.5703 104.66 98.1005 104.727 97.7181 104.52C88.5709 99.5771 69.6924 98.6646 61.1996 109.491C60.8227 109.972 60.1051 109.989 59.69 109.541C48.4024 97.3718 31.8958 99.6338 27.0853 103.58C26.7445 103.859 26.2657 103.894 25.8983 103.651C18.5426 98.7781 8.66086 97.9482 0.597957 101.535C0.235645 101.696 -0.000488281 102.052 -0.000488281 102.448V108.881C-0.000488281 108.485 0.235645 108.129 0.597715 107.967C8.66062 104.381 18.5424 105.211 25.8981 110.084C26.2655 110.327 26.7443 110.292 27.085 110.013C31.8956 106.067 48.4024 103.805 59.6898 115.974C60.1051 116.422 60.8225 116.405 61.1993 115.924C69.6919 105.097 88.5704 106.01 97.7178 110.953C98.1002 111.16 98.5701 111.093 98.881 110.789C106.283 103.559 119.406 104.866 123.72 109.361C123.899 109.547 123.999 109.795 123.999 110.054V103.621C124 103.363 123.899 103.115 123.721 102.928Z" fill="#BED9FD"/>
<path id="Vector_26" d="M68.3093 63.6733C66.4384 63.5451 64.6995 64.0874 63.3038 65.0804C62.2566 63.5577 60.5027 62.559 58.515 62.559C58.1888 62.559 57.8696 62.5871 57.5581 62.6389C57.0985 58.7695 53.8084 55.768 49.8152 55.768C45.798 55.768 42.4914 58.8053 42.0635 62.7084L44.8898 64.0302C45.6801 64.3998 46.185 65.1935 46.185 66.0658V82.8744C46.185 84.8903 47.7343 86.6249 49.7478 86.7196C51.8977 86.8208 53.6727 85.1078 53.6727 82.9802V72.2225C53.6727 70.3203 55.6495 69.0627 57.3724 69.8684L72.8952 77.1282C74.5515 75.6533 75.5684 73.476 75.4754 71.0629C75.325 67.1605 72.2054 63.9397 68.3093 63.6733Z" fill="#DDEBFD"/>
</g>
</g>
<defs>
<clipPath id="clip0_1_174">
<rect width="124" height="124" fill="white"/>
</clipPath>
</defs>
</svg>
