<svg width="125" height="124" viewBox="0 0 125 124" fill="none" xmlns="http://www.w3.org/2000/svg">
<g id="flood" clip-path="url(#clip0_1_55)">
<g id="Group">
<path id="Vector" d="M102.292 67.7765L99.1635 73.1944L81.2935 98.5701L95.6356 106.85L114.219 74.6628C115.539 72.3761 114.756 69.4519 112.469 68.1317L108.823 66.0266C106.536 64.7062 103.612 65.4897 102.292 67.7765Z" fill="#EEC06B"/>
<path id="Vector_2" d="M110.481 87.9646C113.422 87.1464 115.142 84.0994 114.324 81.1592C113.505 78.2189 110.458 76.4986 107.518 77.3169C104.578 78.1352 102.858 81.1821 103.676 84.1224C104.494 87.0627 107.541 88.7829 110.481 87.9646Z" fill="#DDEBFD"/>
<path id="Vector_3" d="M109.036 90.0451C107.782 90.0451 106.512 89.7264 105.349 89.0551C103.638 88.067 102.413 86.4712 101.902 84.562C101.39 82.6528 101.653 80.6587 102.641 78.9469C103.629 77.2354 105.225 76.0109 107.134 75.4994C109.042 74.9879 111.037 75.2501 112.749 76.2385C116.282 78.2785 117.498 82.8127 115.457 86.3464C114.088 88.7177 111.596 90.0449 109.036 90.0451ZM109.055 78.9881C108.737 78.9881 108.417 79.03 108.102 79.1142C107.159 79.3671 106.37 79.9721 105.882 80.818C105.393 81.664 105.264 82.6497 105.516 83.5933C105.769 84.5368 106.374 85.3254 107.22 85.8139C108.966 86.8223 111.208 86.2215 112.216 84.4751C113.224 82.7289 112.624 80.4877 110.877 79.4795C110.314 79.1544 109.688 78.9881 109.055 78.9881Z" fill="#407194"/>
<path id="Vector_4" d="M83.9379 75.7551L73.3977 94.0114L83.7079 99.9639L99.1633 73.1942L89.9539 72.5546C87.5017 72.3841 85.1668 73.6262 83.9379 75.7551Z" fill="#5D91B9"/>
<path id="Vector_5" d="M91.3778 86.6783L81.0677 80.7258L79.1965 83.9667L89.5065 89.9192L91.3778 86.6783Z" fill="#407194"/>
<path id="Vector_6" d="M1.53644 90.6187L6.68341 94.5543C10.2542 97.2847 15.2116 97.2847 18.7824 94.5543L23.4113 91.0149C24.4273 90.238 25.838 90.238 26.854 91.0149L31.4827 94.554C35.0535 97.2845 40.0108 97.2845 43.5816 94.554L48.2108 91.0147C49.2268 90.2378 50.6375 90.2378 51.6535 91.0147L56.282 94.5538C59.8528 97.2842 64.8101 97.2842 68.3812 94.5538L73.0096 91.0147C74.0256 90.2378 75.4363 90.2378 76.4523 91.0147L81.0815 94.554C84.6523 97.2842 89.6096 97.2842 93.1804 94.554L97.8094 91.0147C98.8253 90.2378 100.236 90.2378 101.252 91.0147L105.883 94.5552C109.454 97.2849 114.41 97.2849 117.981 94.5552L123.13 90.6185C123.623 90.2419 124.334 90.5931 124.334 91.2131V121.472H0.333252V91.2133C0.333252 90.5933 1.04383 90.2421 1.53644 90.6187Z" fill="#62A4FB"/>
<path id="Vector_7" d="M105.883 103.334L101.252 99.7937C100.236 99.017 98.8253 99.0171 97.8094 99.794L93.1804 103.333C89.6096 106.064 84.6525 106.064 81.0815 103.333L76.4523 99.794C75.4363 99.0171 74.0256 99.0171 73.0096 99.794L68.3812 103.333C64.8103 106.063 59.853 106.063 56.282 103.333L51.6535 99.794C50.6375 99.0171 49.2268 99.0171 48.2108 99.794L43.5819 103.333C40.0111 106.063 35.0537 106.063 31.4829 103.333L26.8542 99.7942C25.8383 99.0173 24.4275 99.0173 23.4115 99.7942L18.7826 103.334C15.2118 106.064 10.2545 106.064 6.68365 103.334L0.333252 98.4779V117.231H124.333V98.4779L117.981 103.334C114.41 106.064 109.453 106.064 105.883 103.334Z" fill="#5392F9"/>
<path id="Vector_8" d="M25.7708 70.9826L17.5856 76.6067L14.3575 58.2986C14.273 57.8188 14.5934 57.3611 15.0732 57.2765L22.2356 56.0135C22.7154 55.929 23.1731 56.2494 23.2577 56.7292L25.7708 70.9826Z" fill="#DDEBFD"/>
<path id="Vector_9" d="M66.2784 75.1346L37.575 67.4085C36.9221 67.2327 36.2248 67.3557 35.6714 67.7442L11.342 84.8213C10.8102 85.1945 10.0766 85.0662 9.70336 84.5343L6.49317 79.9609C6.11995 79.429 6.24831 78.6954 6.78016 78.3222L33.5029 59.5653C34.4658 58.8893 35.6794 58.6753 36.8158 58.9811L68.3423 67.4671C68.9695 67.636 69.3413 68.2814 69.1725 68.9089L67.7201 74.3043C67.5513 74.9316 66.9059 75.3034 66.2784 75.1346Z" fill="#5D91B9"/>
<path id="Vector_10" d="M37.5757 67.4082C36.9227 67.2323 36.2255 67.3554 35.6721 67.7438L15.6265 81.8142L22.4254 120.373L68.0237 112.333L61.2248 73.7741L37.5757 67.4082Z" fill="#DDEBFD"/>
<path id="Vector_11" d="M61.2248 73.7738L37.5757 67.4082C36.9227 67.2323 36.2255 67.3554 35.6721 67.7438L15.6265 81.8142L16.7083 87.9503L36.7363 73.7789C37.2892 73.3875 37.9864 73.2647 38.6399 73.4432L62.3069 79.9101L61.2248 73.7738Z" fill="#BED9FD"/>
<path id="Vector_12" d="M34.5674 95.1082L38.5219 117.535L51.9257 115.172L47.9713 92.7447C47.3186 89.0434 43.789 86.5718 40.0876 87.2245C36.3863 87.8772 33.9147 91.4069 34.5674 95.1082Z" fill="#D97B7B"/>
<path id="Vector_13" d="M124.333 122.241V104.965L117.981 109.821C114.41 112.551 109.454 112.551 105.883 109.821L101.252 106.281C100.236 105.504 98.8253 105.504 97.8094 106.281L93.1802 109.82C89.6094 112.551 84.6523 112.551 81.0815 109.82L76.4523 106.281C75.4363 105.504 74.0256 105.504 73.0096 106.281L68.3809 109.82C64.8099 112.551 59.8528 112.551 56.2817 109.82L51.6533 106.281C50.6373 105.504 49.2265 105.504 48.2106 106.281L43.5816 109.82C40.0108 112.551 35.0535 112.551 31.4827 109.82L26.854 106.281C25.838 105.504 24.4273 105.504 23.4113 106.281L18.7824 109.821C15.2116 112.551 10.2542 112.551 6.68341 109.821L0.333252 104.965V122.241C0.333252 123.056 0.994666 123.718 1.81035 123.718H122.856C123.672 123.718 124.333 123.056 124.333 122.241Z" fill="#9EC8FC"/>
</g>
</g>
<defs>
<clipPath id="clip0_1_55">
<rect width="124" height="124" fill="white" transform="translate(0.333252)"/>
</clipPath>
</defs>
</svg>
