<svg width="125" height="124" viewBox="0 0 125 124" fill="none" xmlns="http://www.w3.org/2000/svg">
<g id="wind" clip-path="url(#clip0_1_217)">
<g id="Group">
<path id="Vector" d="M63.4884 123.519C62.5243 123.519 61.721 122.761 61.6754 121.788C61.372 115.303 63.9779 109.962 69.0132 106.75C69.8589 106.21 70.982 106.458 71.5215 107.304C72.0611 108.15 71.8129 109.273 70.9669 109.812C65.9786 112.995 65.1343 117.989 65.3041 121.618C65.3511 122.62 64.5768 123.471 63.5747 123.518C63.5458 123.519 63.517 123.519 63.4884 123.519Z" fill="#C77E67"/>
<path id="Vector_2" d="M90.0761 85.7147C90.9148 85.8087 91.5109 86.5967 91.3418 87.4236C90.808 90.0334 89.3588 92.5921 87.3021 94.1837C86.3866 94.8904 85.3552 95.4451 84.2634 95.8304C84.1198 95.881 84.0389 96.028 84.0711 96.177C84.5361 98.3319 84.0488 100.707 82.6606 102.433C81.6315 103.714 80.1438 104.587 78.5439 104.956C78.4024 104.989 78.3056 105.115 78.3107 105.26C78.3341 105.927 78.2797 106.609 78.1285 107.304C77.2966 111.131 73.8534 113.907 69.9373 113.874C65.1618 113.833 61.4372 109.823 61.6918 105.107C61.7736 103.593 62.2563 102.193 63.0318 101.009C62.6322 99.0013 63.1204 96.8267 64.4762 95.2344C65.7879 93.6945 67.745 92.7478 69.7864 92.27C69.5875 91.2504 69.7203 90.1455 70.1625 89.2017C70.9818 87.4614 72.6783 86.2511 74.5006 85.6403C76.3228 85.0271 78.2787 84.9499 80.2014 84.9736C83.5029 85.0167 86.7926 85.3463 90.0761 85.7147Z" fill="#6FBBC6"/>
<path id="Vector_3" d="M90.076 85.7147C88.5176 85.5398 86.9574 85.3749 85.3955 85.2441C85.9458 85.5367 86.279 86.169 86.1463 86.8276C85.6094 89.4943 84.157 92.1099 82.0986 93.7386C81.1822 94.4618 80.15 95.0295 79.058 95.4242C78.9143 95.4761 78.8332 95.6265 78.8652 95.7786C79.3278 97.9796 78.8378 100.406 77.4472 102.171C76.4164 103.481 74.9277 104.375 73.3271 104.754C73.1856 104.788 73.0885 104.916 73.0934 105.064C73.1161 105.746 73.0609 106.443 72.9088 107.154C72.2682 110.149 70.0953 112.514 67.354 113.445C68.1639 113.716 69.0314 113.867 69.9369 113.875C73.8531 113.908 77.2963 111.132 78.1282 107.305C78.2793 106.609 78.3338 105.927 78.3103 105.26C78.3052 105.115 78.4021 104.989 78.5435 104.957C80.1437 104.587 81.6312 103.714 82.6603 102.433C84.0487 100.707 84.5358 98.3324 84.0708 96.1774C84.0385 96.0285 84.1194 95.8815 84.2631 95.8309C85.3548 95.4456 86.3863 94.8912 87.3018 94.1842C89.3582 92.5923 90.8074 90.0336 91.3415 87.4241C91.5108 86.5967 90.9147 85.8087 90.076 85.7147Z" fill="#61AAB8"/>
<path id="Vector_4" d="M77.0914 88.6103C74.8783 88.5609 72.5933 88.5156 70.3073 88.9201C70.2569 89.0126 70.2082 89.1061 70.1631 89.202C69.7233 90.1404 69.5904 91.238 69.7844 92.2531C70.0459 92.1833 70.3123 92.1194 70.585 92.0658C72.6458 91.6611 74.8698 91.7101 77.0217 91.7583C77.8877 91.7764 78.6111 91.0886 78.6305 90.2194C78.6494 89.3499 77.9604 88.6297 77.0914 88.6103Z" fill="#61AAB8"/>
<path id="Vector_5" d="M94.9679 123.519C94.0038 123.519 93.2004 122.761 93.1549 121.788C92.8515 115.303 95.4574 109.962 100.493 106.75C101.338 106.21 102.461 106.458 103.001 107.304C103.541 108.15 103.292 109.273 102.446 109.812C97.4581 112.995 96.6138 117.989 96.7836 121.618C96.8306 122.62 96.0563 123.471 95.0541 123.518C95.0253 123.519 94.9965 123.519 94.9679 123.519Z" fill="#C77E67"/>
<path id="Vector_6" d="M121.556 85.715C122.395 85.8089 122.991 86.597 122.822 87.4238C122.288 90.0336 120.839 92.5923 118.782 94.184C117.867 94.8907 116.835 95.4453 115.743 95.8306C115.6 95.8813 115.519 96.0283 115.551 96.1772C116.016 98.3322 115.529 100.707 114.141 102.433C113.112 103.714 111.624 104.587 110.024 104.957C109.882 104.989 109.786 105.115 109.791 105.26C109.814 105.927 109.76 106.609 109.609 107.305C108.777 111.132 105.333 113.908 101.417 113.874C96.6418 113.834 92.9172 109.824 93.1717 105.108C93.2536 103.593 93.7363 102.194 94.5118 101.009C94.1122 99.0016 94.6004 96.827 95.9562 95.2346C97.2679 93.6948 99.225 92.7481 101.266 92.2702C101.068 91.2506 101.2 90.1458 101.642 89.202C102.462 87.4616 104.158 86.2514 105.981 85.6406C107.803 85.0274 109.759 84.9501 111.681 84.9739C114.983 85.017 118.273 85.3466 121.556 85.715Z" fill="#6FBBC6"/>
<path id="Vector_7" d="M121.555 85.7147C119.997 85.5398 118.436 85.3749 116.875 85.2441C117.425 85.5367 117.758 86.169 117.625 86.8276C117.088 89.4943 115.636 92.1099 113.578 93.7386C112.661 94.4618 111.629 95.0295 110.537 95.4242C110.393 95.4761 110.312 95.6265 110.344 95.7786C110.807 97.9796 110.317 100.406 108.926 102.171C107.895 103.481 106.407 104.375 104.806 104.754C104.665 104.788 104.568 104.916 104.572 105.064C104.595 105.746 104.54 106.443 104.388 107.154C103.747 110.149 101.574 112.514 98.833 113.445C99.6429 113.716 100.51 113.867 101.416 113.875C105.332 113.908 108.775 111.132 109.607 107.305C109.758 106.609 109.813 105.927 109.789 105.26C109.784 105.115 109.881 104.989 110.023 104.957C111.623 104.587 113.11 103.714 114.139 102.433C115.528 100.707 116.015 98.3324 115.55 96.1774C115.518 96.0285 115.598 95.8815 115.742 95.8309C116.834 95.4456 117.865 94.8912 118.781 94.1842C120.837 92.5923 122.286 90.0336 122.82 87.4241C122.99 86.5967 122.394 85.8087 121.555 85.7147Z" fill="#61AAB8"/>
<path id="Vector_8" d="M108.57 88.6103C106.357 88.5608 104.072 88.5158 101.786 88.92C101.735 89.0125 101.687 89.106 101.642 89.2019C101.202 90.1404 101.069 91.238 101.263 92.2528C101.524 92.183 101.791 92.1191 102.064 92.0655C104.124 91.6608 106.349 91.71 108.5 91.758C109.363 91.7761 110.09 91.0883 110.109 90.2191C110.128 89.3499 109.439 88.6296 108.57 88.6103Z" fill="#61AAB8"/>
<g id="Group_2">
<path id="Vector_9" d="M110.706 72.4216H72.3198C71.3167 72.4216 70.5034 71.6083 70.5034 70.6052C70.5034 69.602 71.3167 68.7888 72.3198 68.7888H110.706C112.366 68.7888 113.717 67.4381 113.717 65.7781C113.717 64.1182 112.366 62.7675 110.706 62.7675C109.902 62.7675 109.146 63.0806 108.577 63.6493C107.868 64.3587 106.718 64.3587 106.009 63.6493C105.299 62.9399 105.299 61.7898 106.009 61.0807C107.263 59.8259 108.932 59.1347 110.706 59.1347C114.369 59.1347 117.35 62.115 117.35 65.7781C117.35 69.4412 114.369 72.4216 110.706 72.4216Z" fill="#BED9FD"/>
<path id="Vector_10" d="M92.8807 56.2592H61.0161C60.013 56.2592 59.1997 55.446 59.1997 54.4428C59.1997 53.4397 60.013 52.6264 61.0161 52.6264H92.8807C94.5407 52.6264 95.8914 51.2757 95.8914 49.6158C95.8914 47.9558 94.5407 46.6052 92.8807 46.6052C92.0767 46.6052 91.3205 46.9183 90.7519 47.487C90.0425 48.1966 88.8924 48.1966 88.1833 47.4872C87.4739 46.7778 87.4736 45.6277 88.183 44.9186C89.4378 43.6635 91.106 42.9726 92.8807 42.9726C96.5438 42.9726 99.5242 45.9529 99.5242 49.616C99.5242 53.2791 96.5441 56.2592 92.8807 56.2592Z" fill="#BED9FD"/>
<path id="Vector_11" d="M66.535 39.2871H34.6702C33.667 39.2871 32.8538 38.4738 32.8538 37.4707C32.8538 36.4676 33.667 35.6543 34.6702 35.6543H66.535C68.195 35.6543 69.5457 34.3036 69.5457 32.6437C69.5457 30.9835 68.195 29.6328 66.535 29.6328C65.731 29.6328 64.9748 29.9459 64.4059 30.5146C63.6966 31.224 62.5464 31.224 61.8373 30.5146C61.1279 29.8052 61.1279 28.6551 61.8373 27.9459C63.0921 26.6912 64.7605 26 66.535 26C70.1981 26 73.1785 28.9803 73.1785 32.6437C73.1785 36.307 70.1983 39.2871 66.535 39.2871Z" fill="#BED9FD"/>
</g>
<path id="Vector_12" d="M28.5359 64.5628L20.0898 63.7483L28.0317 49.9928C28.2397 49.6322 28.7008 49.5087 29.0614 49.717L34.4428 52.824C34.8035 53.032 34.927 53.4931 34.7187 53.8538L28.5359 64.5628Z" fill="#DDEBFD"/>
<path id="Vector_13" d="M54.5019 91.3662L39.9588 70.5458C39.628 70.0721 39.1041 69.7698 38.5284 69.72L13.2259 67.5354C12.673 67.4877 12.2632 67.0007 12.3109 66.4478L12.7217 61.6914C12.7694 61.1385 13.2564 60.7287 13.8093 60.7765L41.6006 63.176C42.6023 63.2625 43.5141 63.7888 44.0895 64.6132L60.0633 87.4815C60.381 87.9366 60.2698 88.5631 59.8148 88.8811L55.901 91.6149C55.4464 91.9324 54.8197 91.8213 54.5019 91.3662Z" fill="#5D91B9"/>
<path id="Vector_14" d="M34.4469 84.1535C34.2822 84.015 34.0643 83.9566 33.8524 83.9942L13.1419 87.6703C12.8642 87.7197 12.6401 87.9251 12.5672 88.1976L6.57382 110.566C6.40065 111.211 6.78403 111.876 7.43019 112.049L43.3028 121.661C43.9487 121.834 44.6127 121.45 44.7859 120.804L50.7793 98.4363C50.8522 98.1638 50.7612 97.8737 50.5451 97.6923L34.4469 84.1535Z" fill="#DDEBFD"/>
<path id="Vector_15" d="M22.554 104.885L19.75 115.35L30.9824 118.36L33.7865 107.894C34.6177 104.793 32.7768 101.604 29.6751 100.773C26.5734 99.9425 23.385 101.783 22.554 104.885Z" fill="#D97B7B"/>
<path id="Vector_16" d="M29.6753 100.773C28.6044 100.486 27.5233 100.518 26.5325 100.81C29.5581 101.693 31.3389 104.835 30.5191 107.894L27.934 117.542L30.9829 118.359L33.787 107.894C34.6179 104.793 32.777 101.605 29.6753 100.773Z" fill="#D16161"/>
<path id="Vector_17" d="M122.85 123.519H2.48267C1.47953 123.519 0.66626 122.705 0.66626 121.702C0.66626 120.699 1.47953 119.886 2.48267 119.886H122.85C123.853 119.886 124.666 120.699 124.666 121.702C124.666 122.705 123.853 123.519 122.85 123.519Z" fill="#8C818F"/>
</g>
</g>
<defs>
<clipPath id="clip0_1_217">
<rect width="124" height="124" fill="white" transform="translate(0.666748)"/>
</clipPath>
</defs>
</svg>
